# xmcd
#
# Track frame offsets:
#	150
#	4635
#	18942
#	39235
#	61577
#	73035
#	79990
#	99892
#	100747
#	109715
#	115877
#	133497
#	141662
#	163912
#
# Disc length: 3140 seconds
#
# Revision: 0
# Processed by: cddbd v1.4PL0 Copyright (c) Steve Scherf et al.
# Submitted via: EasyCDDAExtractor 4.5.2.1
#
DISCID=b70c420e
DTITLE=The O'Boys - Total Åge Collection
DYEAR=1995
DGENRE=Blues
TTITLE0=Prekasse
TTITLE1=Hun er bare ute etter kroppen din, Åge
TTITLE2=Åges tabber
TTITLE3=Åge Skjeveland
TTITLE4=Da fikk Åge skjegg
TTITLE5=I will always love you
TTITLE6=Åges værste år
TTITLE7=
TTITLE8=Du er min smørblomst Åge
TTITLE9=Fyll inn passende tittel her
TTITLE10=Det er nok ikke Åges dag i dag
TTITLE11=Let Åge move your body
TTITLE12=Åge Gregoriana - opus 4 suite 13 sonate 27 vers -6 i a moll
TTITLE13=Postkasse - Blues for Åge
EXTD=Spilt inn i auditoriet studios påsken 1995.\n
EXTT0=
EXTT1=
EXTT2=
EXTT3=
EXTT4=
EXTT5=
EXTT6=
EXTT7=
EXTT8=
EXTT9=
EXTT10=
EXTT11=
EXTT12=
EXTT13=
PLAYORDER=
